{"title":"I Am Number Four[2011]DvDrip[Eng]{daremusic}","uid":6650324,"size":734437912,"categoryP":"video","categoryS":"movies","magnet":"?xt=urn:btih:7b5ee8f3adc19c383f224275ae1c30a40df69568&amp;dn=I+Am+Number+Four%5B2011%5DDvDrip%5BEng%5D%7Bdaremusic%7D&amp;tr=udp%3A%2F%2Ftracker.openbittorrent.com%3A80&amp;tr=udp%3A%2F%2Fopen.demonii.com%3A1337&amp;tr=udp%3A%2F%2Ftracker.coppersurfer.tk%3A6969&amp;tr=udp%3A%2F%2Fexodus.desync.com%3A6969","seeders":0,"leechers":0,"uploader":"daremusic","files":3,"time":1315122614,"description":"img]http://www.pix2links.com/images/88942288108863483848.gif[/img]\n[img]http://www.iwatchstuff.com/2010/11/30/i-am-number-four-poster.jpg[/img]\n\n[quote]\nGeneral\nComplete name                    : I Am Number Four[2011]DvDrip[Eng]-{daremusic}\nFormat                                  : AVI\nFormat/Info                           : Audio Video Interleave\nFile size                                : 700 MiB\nDuration                                :  1h 49mn\nOverall bit rate                      : 893 Kbps\nWriting application                : VirtualDubMod 1.5.10.2 (build 2540/release)\nWriting library                       : VirtualDubMod build 2540/release\n\nVideo\nID                                             : 0\nFormat                                     : MPEG-4 Visual\nFormat profile                          : Advanced Simple@L5\nFormat settings, BVOP            : 2\nFormat settings, QPel              : No\nFormat settings, GMC              : No warppoints\nFormat settings, Matrix             : Default (H.263)\nMuxing mode                            : Packed bitstream\nCodec ID                                   : DX50\nCodec ID/Hint                            : DivX 5\nDuration                                     : 1h 49mn\nBit rate                                       : 756 Kbps\nWidth                                         : 616 pixels\nHeight                                        : 320 pixels\nDisplay aspect ratio                   : 1.925\nFrame rate                                 : 23.976 fps\nColor space                               : YUV\nChroma subsampling                : 4:2:0\nBit depth                                   : 8 bits\nScan type                                 : Progressive\nCompression mode                  : Lossy\nBits/(Pixel*Frame)                    : 0.160\nStream size                              : 593 MiB (85%)\nWriting library                           : XviD 1.2.1 (UTC 2008-12-04)\n\nAudio\nID                                   : 1\nFormat                           : MPEG Audio\nFormat version              : Version 1\nFormat profile                : Layer 3\nMode                             : Joint stereo\nMode extension             : MS Stereo\nCodec ID                       : 55\nCodec ID/Hint                : MP3\nDuration                         : 1h 49mn\nBit rate mode                  : Constant\nBit rate                            : 128 Kbps\nChannel(s)                      : 2 channels\nSampling rate                 : 48.0 KHz\nCompression mode        : Lossy\nStream size                    : 100 MiB (14%)\nAlignment                       : Aligned on interleaves\nInterleave, duration        : 42 ms (1.00 video frame)\nInterleave, preload duration     : 504 ms\n[/quote]\n\n[img]http://image.bayimg.com/bajfmaado.jpg[/img]\n[img]http://image.bayimg.com/bajfnaado.jpg[/img]\n[img]http://image.bayimg.com/bajfoaado.jpg[/img]\n[img]http://image.bayimg.com/cajfcaado.jpg[/img]\n\n\n[img]http://www.pix2links.com/images/84063166943178392908.png[/img]\n[img]http://www.pix2links.com/images/08857976281622243376.gif[/img]","torrent":{"xt":"urn:btih:7b5ee8f3adc19c383f224275ae1c30a40df69568","amp;dn":"I+Am+Number+Four%5B2011%5DDvDrip%5BEng%5D%7Bdaremusic%7D","amp;tr":["udp%3A%2F%2Ftracker.openbittorrent.com%3A80","udp%3A%2F%2Fopen.demonii.com%3A1337","udp%3A%2F%2Ftracker.coppersurfer.tk%3A6969","udp%3A%2F%2Fexodus.desync.com%3A6969"],"infoHash":"7b5ee8f3adc19c383f224275ae1c30a40df69568","infoHashBuffer":{"type":"Buffer","data":[123,94,232,243,173,193,156,56,63,34,66,117,174,28,48,164,13,246,149,104]},"announce":[],"urlList":[]}}